<?xml version="1.0" encoding="UTF-8" standalone="no"?> <!-- Created with Vectornator for iOS (http://vectornator.io/) --><!DOCTYPE svg PUBLIC "-//W3C//DTD SVG 1.1//EN" "http://www.w3.org/Graphics/SVG/1.1/DTD/svg11.dtd">
<svg height="100%" style="fill-rule:nonzero;clip-rule:evenodd;stroke-linecap:round;stroke-linejoin:round;" xmlns:xlink="http://www.w3.org/1999/xlink" xmlns="http://www.w3.org/2000/svg" xml:space="preserve" width="100%" xmlns:vectornator="http://vectornator.io" version="1.1" viewBox="0 0 480 480">
<metadata>
<vectornator:setting key="DimensionsVisible" value="1"/>
<vectornator:setting key="PencilOnly" value="0"/>
<vectornator:setting key="SnapToPoints" value="0"/>
<vectornator:setting key="OutlineMode" value="0"/>
<vectornator:setting key="CMYKEnabledKey" value="0"/>
<vectornator:setting key="RulersVisible" value="1"/>
<vectornator:setting key="SnapToEdges" value="0"/>
<vectornator:setting key="GuidesVisible" value="1"/>
<vectornator:setting key="DisplayWhiteBackground" value="0"/>
<vectornator:setting key="doHistoryDisabled" value="0"/>
<vectornator:setting key="SnapToGuides" value="1"/>
<vectornator:setting key="TimeLapseWatermarkDisabled" value="0"/>
<vectornator:setting key="Units" value="Points"/>
<vectornator:setting key="DynamicGuides" value="0"/>
<vectornator:setting key="IsolateActiveLayer" value="0"/>
<vectornator:setting key="SnapToGrid" value="0"/>
</metadata>
<defs>
<linearGradient y1="32.9999" id="LinearGradient" x1="6.00017" y2="344" x2="235" gradientUnits="userSpaceOnUse" gradientTransform="matrix(0.448003 0.0969043 -0.0969043 0.448003 10.0204 160.694)">
<stop stop-color="#41d1ff" offset="0"/>
<stop stop-color="#bd34fe" offset="1"/>
</linearGradient>
<linearGradient y1="8.81818" id="LinearGradient_2" x1="194.651" y2="292.989" x2="236.076" gradientUnits="userSpaceOnUse" gradientTransform="matrix(0.448003 0.0969043 -0.0969043 0.448003 10.0204 160.694)">
<stop stop-color="#ffea83" offset="0"/>
<stop stop-color="#ffdd35" offset="0.0833333"/>
<stop stop-color="#ffa800" offset="1"/>
</linearGradient>
</defs>
<g id="Layer 1" vectornator:layerName="Layer 1">
<g opacity="1">
<g opacity="1">
<path d="M289.724+44.45L237.578+134.77L185.433+44.45L11.78+44.45L237.579+435.55L463.379+44.45L289.724+44.45Z" opacity="1" fill="#41b883"/>
<path d="M289.724+44.45L237.578+134.77L185.433+44.45L102.1+44.45L237.579+279.105L373.058+44.45L289.724+44.45Z" opacity="1" fill="#34495e"/>
</g>
<g opacity="1">
<path d="M183.292+226.088L68.9774+355.66C66.6171+358.335+62.2407+357.408+61.1683+354.005L8.98974+188.401C7.82162+184.694+11.5084+181.307+15.1037+182.784L94.4331+215.383C94.9392+215.591+95.4783+215.707+96.0255+215.725L180.005+218.475C183.879+218.602+185.857+223.181+183.292+226.088Z" opacity="1" fill="url(#LinearGradient)"/>
<path d="M141.117+189.789L77.5296+188.547C76.4845+188.527+75.5584+189.216+75.2773+190.223L57.8164+252.787C57.4053+254.261+58.5256+255.716+60.0551+255.695L77.8868+255.449C79.5551+255.426+80.6882+257.136+80.016+258.664L69.6255+282.281C68.9262+283.871+70.18+285.63+71.9107+285.488L83.09+284.57C84.8231+284.428+86.0773+286.192+85.3732+287.782L68.9593+324.86C67.9324+327.179+70.8752+329.201+72.6722+327.411L73.8724+326.215L145.037+237.767C146.229+236.286+145.203+234.082+143.303+234.039L125.091+233.632C123.38+233.593+122.313+231.761+123.124+230.254L143.09+193.167C143.903+191.657+142.831+189.823+141.117+189.789Z" opacity="1" fill="url(#LinearGradient_2)"/>
</g>
<g opacity="1">
<path d="M294.072+259.456L417.026+224.942C425.267+222.629+433.823+227.434+436.136+235.675L470.65+358.63C472.963+366.871+468.158+375.427+459.917+377.74L336.962+412.254C328.721+414.567+320.165+409.762+317.852+401.521L283.338+278.566C281.025+270.325+285.831+261.769+294.072+259.456Z" opacity="1" fill="#3178c6"/>
<path d="M407.848+358.551L412.037+373.473C414.806+374.048+418.02+374.144+421.479+373.849C424.937+373.554+428.602+372.847+432.183+371.842C435.765+370.837+438.955+369.587+442.045+367.979C445.135+366.371+447.503+364.483+449.48+362.351C451.453+360.091+452.951+357.513+453.391+354.492C453.831+351.471+453.918+348.227+452.829+344.347C452.067+341.632+450.987+339.391+449.595+337.529C448.203+335.666+446.536+334.202+444.506+333.162C442.54+332.008+440.386+331.099+437.961+330.492C435.537+329.884+432.798+329.301+429.794+328.921C427.598+328.668+425.769+328.345+423.76+328.071C421.991+327.731+420.43+327.332+419.227+326.833C417.897+326.337+416.827+325.736+415.987+325.038C415.139+324.31+414.564+323.409+414.254+322.305C413.969+321.29+413.975+320.29+414.281+319.303C414.586+318.316+415.137+317.421+415.924+316.556C416.711+315.691+417.78+314.908+419.12+314.178C420.43+313.456+421.94+312.871+423.761+312.36C425.014+312.008+426.353+311.732+427.719+311.552C429.145+311.354+430.629+311.25+432.14+311.244C433.652+311.239+435.159+311.331+436.729+311.534C438.209+311.762+439.626+312.105+440.888+312.588L436.951+298.561C434.44+298.333+431.749+298.38+428.945+298.716C426.142+299.052+423.099+299.681+419.518+300.686C415.937+301.691+412.763+303.001+409.69+304.668C406.616+306.336+404.265+308.284+402.339+310.595C400.374+312.885+399.166+315.349+398.428+318.454C397.729+321.354+397.846+324.412+398.852+327.993C400.108+332.47+402.481+335.989+405.915+338.245C409.403+340.807+414.072+342.072+419.815+343.035C422.109+343.293+424.164+343.618+426.181+343.921C428.198+344.224+429.924+344.641+431.361+345.171C432.887+345.676+434.17+346.346+435.141+347.168C436.172+347.974+436.895+349.058+437.281+350.431C437.549+351.386+437.567+352.347+437.348+353.31C437.129+354.273+436.62+355.188+435.832+356.053C435.045+356.918+434.015+357.722+432.653+358.491C431.343+359.213+429.811+359.836+427.722+360.422C424.44+361.344+420.998+361.698+417.695+361.402C414.094+361.19+410.632+360.326+407.318+358.842L407.848+358.551ZM372.476+328.881L391.576+323.519L388.141+311.284L334.721+326.279L338.156+338.514L357.256+333.153L372.586+387.766L387.806+383.494L372.476+328.881Z" fill-rule="evenodd" fill="#ffffff" opacity="1"/>
</g>
</g>
</g>
</svg>
